HIERARCHY
ROOT hip
{
	OFFSET 0.000000 0.000000 0.000000 
	CHANNELS 6 Xposition Yposition Zposition Xrotation Zrotation Yrotation
	JOINT abdomen
	{
		OFFSET 0.000000 3.402643 0.000000 
		CHANNELS 3 Xrotation Zrotation Yrotation
		JOINT chest
		{
			OFFSET 0.000000 8.438565 -0.680529 
			CHANNELS 3 Xrotation Zrotation Yrotation
			JOINT neck
			{
				OFFSET 0.000000 10.207942 -0.272212 
				CHANNELS 3 Xrotation Zrotation Yrotation
				JOINT head
				{
					OFFSET 0.000000 3.130431 0.000000 
					CHANNELS 3 Xrotation Zrotation Yrotation
					End Site
					{
						OFFSET 0.000000 3.130435 0.000000 
					}
				}
			}
			JOINT lCollar
			{
				OFFSET 3.470700 6.669187 -0.816635 
				CHANNELS 3 Yrotation Zrotation Xrotation
				JOINT lShldr
				{
					OFFSET 3.198488 0.000000 0.000000 
					CHANNELS 3 Zrotation Yrotation Xrotation
					JOINT lForeArm
					{
						OFFSET 10.139888 0.000000 0.000000 
						CHANNELS 3 Yrotation Zrotation Xrotation
						JOINT lHand
						{
							OFFSET 8.370511 0.000000 0.000000 
							CHANNELS 3 Zrotation Yrotation Xrotation
							End Site
							{
								OFFSET 4.083176 0.000000 0.000000 
							}
						}
					}
				}
			}
			JOINT rCollar
			{
				OFFSET -3.470700 6.669187 -0.816635 
				CHANNELS 3 Yrotation Zrotation Xrotation
				JOINT rShldr
				{
					OFFSET -3.198488 0.000000 0.000000 
					CHANNELS 3 Zrotation Yrotation Xrotation
					JOINT rForeArm
					{
						OFFSET -10.139888 0.000000 0.000000 
						CHANNELS 3 Yrotation Zrotation Xrotation
						JOINT rHand
						{
							OFFSET -8.370511 0.000000 0.000000 
							CHANNELS 3 Zrotation Yrotation Xrotation
							End Site
							{
								OFFSET -4.083176 0.000000 0.000000 
							}
						}
					}
				}
			}
		}
	}
	JOINT lThigh
	{
		OFFSET 5.308129 -1.633274 1.361059 
		CHANNELS 3 Xrotation Zrotation Yrotation
		JOINT lShin
		{
			OFFSET -2.041588 -20.007561 0.000000 
			CHANNELS 3 Xrotation Zrotation Yrotation
			JOINT lFoot
			{
				OFFSET 0.000000 -19.190928 -1.224953 
				CHANNELS 3 Xrotation Yrotation Zrotation
				End Site
				{
					OFFSET 0.000000 -2.449906 4.627600 
				}
			}
		}
	}
	JOINT rThigh
	{
		OFFSET -5.308129 -1.633274 1.361059 
		CHANNELS 3 Xrotation Zrotation Yrotation
		JOINT rShin
		{
			OFFSET 2.041588 -20.007561 0.000000 
			CHANNELS 3 Xrotation Zrotation Yrotation
			JOINT rFoot
			{
				OFFSET 0.000000 -19.190928 -1.224953 
				CHANNELS 3 Xrotation Yrotation Zrotation
				End Site
				{
					OFFSET 0.000000 -2.449906 4.627600 
				}
			}
		}
	}
}
MOTION
Frames: 16
Frame Time: 0.033333
0.410442 44.006001 4.456357 18.096500 6.191900 -11.080113 0.000000 0.000000 0.000000 -16.018593 -2.460673 -0.840746 3.408206 -0.019531 -0.009769 -8.345314 5.798828 1.492564 1.992188 -2.001953 0.000341 -66.356346 0.787941 40.828457 -64.662086 1.460742 20.353655 23.115574 -50.556278 18.937067 -2.001953 1.992188 0.000000 49.193653 -26.236275 41.982502 66.881577 -1.509690 20.407402 -18.058695 52.688938 18.357813 -26.321302 3.104263 -0.000334 25.688793 -1.407027 -2.344897 -15.603295 1.981080 -3.504742 -33.126987 -7.752319 2.279598 31.635643 1.137300 2.676334 -17.860538 -1.781414 3.771297 
0.410442 44.008682 4.456357 18.096500 6.191900 -11.080113 0.000000 0.000000 0.000000 -16.018593 -2.460673 -0.840746 3.408206 -0.019531 -0.009769 -8.345314 5.798828 1.492564 1.992188 -2.001953 0.000341 -66.356346 0.787941 40.828457 -64.662086 1.460742 20.353655 23.115574 -50.556278 18.937067 -2.001953 1.992188 0.000000 49.193653 -26.236275 41.982502 66.881577 -1.509690 20.407402 -18.058695 52.688938 18.357813 -26.321302 3.104263 -0.000334 25.688793 -1.407027 -2.344897 -15.603295 1.981078 -3.504743 -33.126987 -7.752319 2.279598 31.635643 1.137300 2.676334 -17.860538 -1.781415 3.771296 
0.410442 44.011364 4.456357 18.096500 6.191900 -11.080113 0.000000 0.000000 0.000000 -16.018593 -2.460673 -0.840746 3.408206 -0.019531 -0.009769 -8.345314 5.798828 1.492564 1.992188 -2.001953 0.000341 -66.356346 0.787941 40.828457 -64.662086 1.460742 20.353655 23.115574 -50.556278 18.937067 -2.001953 1.992188 0.000000 49.193653 -26.236275 41.982502 66.881577 -1.509690 20.407402 -18.058695 52.688938 18.357813 -26.321302 3.104263 -0.000334 25.688793 -1.407026 -2.344897 -15.603295 1.981079 -3.504742 -33.126987 -7.752319 2.279598 31.635643 1.137300 2.676334 -17.860538 -1.781414 3.771297 
0.410442 44.014046 4.456357 18.096500 6.191900 -11.080113 0.000000 0.000000 0.000000 -16.018593 -2.460673 -0.840746 3.408206 -0.019531 -0.009769 -8.345314 5.798828 1.492564 1.992188 -2.001953 0.000341 -66.356346 0.787941 40.828457 -64.662086 1.460742 20.353655 23.115574 -50.556278 18.937067 -2.001953 1.992188 0.000000 49.193653 -26.236275 41.982502 66.881577 -1.509690 20.407402 -18.058695 52.688938 18.357813 -26.321302 3.104263 -0.000334 25.688793 -1.407026 -2.344897 -15.603295 1.981078 -3.504743 -33.126987 -7.752319 2.279598 31.635643 1.137300 2.676334 -17.860538 -1.781414 3.771297 
0.410442 44.016792 4.456357 18.096500 6.191900 -11.080113 0.000000 0.000000 0.000000 -16.018593 -2.460673 -0.840746 3.408206 -0.019531 -0.009769 -8.345314 5.798828 1.492564 1.992188 -2.001953 0.000341 -66.356346 0.787941 40.828457 -64.662086 1.460742 20.353655 23.115574 -50.556278 18.937067 -2.001953 1.992188 0.000000 49.193653 -26.236275 41.982502 66.881577 -1.509690 20.407402 -18.058695 52.688938 18.357813 -26.321302 3.104263 -0.000334 25.688793 -1.407027 -2.344897 -15.603295 1.981078 -3.504743 -33.126987 -7.752319 2.279598 31.635643 1.137300 2.676334 -17.860538 -1.781414 3.771297 
0.410442 44.019543 4.456357 18.096500 6.191900 -11.080113 0.000000 0.000000 0.000000 -16.018593 -2.460673 -0.840746 3.398441 -0.019531 -0.009769 -8.345314 5.798828 1.492564 1.992188 -2.001953 0.000341 -66.356346 0.787941 40.828457 -64.662086 1.460742 20.353655 23.115574 -50.556278 18.937067 -2.001953 1.992188 0.000000 49.193653 -26.236275 41.982502 66.881577 -1.509690 20.407402 -18.058695 52.688938 18.357813 -26.321302 3.104263 -0.000334 25.688793 -1.407026 -2.344897 -15.603295 1.981078 -3.504743 -33.126987 -7.752320 2.279599 31.635643 1.137300 2.676334 -17.860538 -1.781414 3.771297 
0.410442 44.022221 4.456357 18.038553 6.459479 -11.547990 0.000000 0.000000 0.000000 -16.015018 -2.450202 -1.613195 2.578994 -0.058587 -0.849619 -7.450043 5.133205 -4.127139 1.992188 -2.001953 0.000341 -66.079697 2.554022 39.044983 -64.210930 1.444859 20.339439 23.115574 -50.556278 18.937067 -2.001953 1.992188 0.000000 48.411186 -25.297867 44.497662 66.871834 -1.509857 20.407793 -18.215229 52.623497 18.388405 -27.502266 3.114258 -0.014806 25.610374 -1.397325 -2.358241 -15.566908 2.381544 -3.540327 -33.215393 -7.752853 2.259773 31.704199 1.142490 2.671488 -17.893587 -1.416389 3.723699 
0.410442 44.024902 4.456357 17.967518 6.725966 -12.007545 0.000000 0.000000 0.000000 -16.011715 -2.439294 -2.385224 1.761267 -0.117137 -1.689470 -6.504689 4.552600 -9.757586 1.992188 -2.001953 0.000341 -65.859230 4.312328 37.265331 -63.757534 1.440210 20.329206 23.115574 -50.556278 18.937067 -2.001953 1.992188 0.000000 47.673901 -24.320240 46.975719 66.862251 -1.519789 20.408184 -18.418831 52.543461 18.377600 -28.684240 3.123790 -0.048370 25.531912 -1.402817 -2.355285 -15.543490 2.770844 -3.571494 -33.285015 -7.743191 2.227889 31.763439 1.132735 2.662217 -17.901226 -1.055362 3.707469 
0.410442 44.030334 4.456357 17.894989 7.037452 -12.517031 0.000000 0.000000 0.000000 -15.992799 -2.426404 -3.763418 0.897862 -0.204872 -2.568378 -5.401367 3.788805 -15.718768 1.992188 -2.001953 0.000341 -65.650780 6.061106 35.602734 -63.320225 1.441781 20.316698 23.115574 -50.556278 18.937067 -2.001953 1.992188 0.000000 47.038460 -23.420082 49.386696 66.862251 -1.519789 20.408184 -18.575104 52.478371 18.408506 -28.881468 3.084873 -0.496006 26.089588 -1.383186 -2.390004 -15.411644 2.685438 -3.927734 -33.441856 -7.792177 2.199796 31.870857 1.132652 2.667683 -17.900953 -0.565373 3.653755 
0.410442 44.035763 4.456357 17.828749 7.337618 -13.028049 0.000000 0.000000 0.000000 -15.974442 -2.412143 -5.141608 0.037786 -0.302184 -3.457086 -4.217156 3.140072 -21.693932 1.992188 -2.001953 0.000341 -65.488663 7.809196 33.943962 -62.888912 1.430870 20.297831 23.115574 -50.556278 18.937067 -2.001953 1.992188 0.000000 46.443226 -22.491751 51.758270 66.852676 -1.529721 20.408577 -18.734430 52.403858 18.432682 -29.090849 3.036704 -0.960317 26.637798 -1.377938 -2.398030 -15.296320 2.609689 -4.245181 -33.587963 -7.840549 2.162199 31.968594 1.117766 2.678436 -17.918705 -0.035622 3.600829 
0.410442 44.041195 4.456357 17.743824 7.672977 -13.571027 0.000000 0.000000 0.000000 -15.949366 -2.396809 -6.460843 -0.837852 -0.408961 -4.375167 -2.922940 2.341631 -27.788759 1.992188 -2.001953 0.000341 -65.346077 9.579327 32.320595 -62.463139 1.419904 20.283047 23.115574 -50.556278 18.937067 -2.001953 1.992188 0.000000 45.950222 -21.588154 54.066727 66.852509 -1.519956 20.408577 -18.920780 52.332745 18.433863 -29.228415 3.006503 -1.412109 27.205790 -1.334348 -2.437478 -15.168467 2.516782 -4.626537 -33.770576 -7.918529 2.161053 32.105507 1.122882 2.677069 -17.936766 0.611693 3.537393 
0.410442 44.046623 4.456357 17.653383 7.996279 -14.124116 0.000000 0.000000 0.000000 -15.924881 -2.380255 -7.780479 -1.718120 -0.534828 -5.283519 -1.547042 1.678202 -33.893341 1.992188 -2.001953 0.000341 -65.246696 11.336835 30.692022 -62.035263 1.420449 20.273138 23.115574 -50.556278 18.937067 -2.001953 1.992188 0.000000 45.507008 -20.668104 56.365093 66.842598 -1.510359 20.408968 -19.087849 52.262844 18.452927 -29.417994 2.968187 -1.889158 27.802473 -1.309653 -2.472609 -15.036590 2.464516 -4.974763 -33.970619 -7.996988 2.130258 32.241932 1.107995 2.699478 -17.946291 1.276553 3.484040 
0.410442 44.051987 4.456357 17.569571 8.335756 -14.688634 0.000000 0.000000 0.000000 -15.902508 -2.342960 -9.138730 -2.573808 -0.669898 -6.191895 -0.119798 0.913947 -39.908398 1.992188 -2.001953 0.000341 -65.173462 13.103875 29.042719 -61.617069 1.417788 20.257767 23.115574 -50.556278 18.937067 -2.001953 1.992188 0.000000 45.139565 -19.721601 58.656052 66.842598 -1.510359 20.408968 -19.254793 52.193123 18.472151 -29.552187 2.909374 -2.383800 28.388641 -1.309730 -2.503055 -14.922007 2.377808 -5.340390 -34.188274 -8.095331 2.124155 32.388329 1.098115 2.713991 -17.949627 2.020164 3.409317 
0.410442 44.057346 4.456357 17.474718 8.681654 -15.266133 0.000000 0.000000 0.000000 -15.870569 -2.314245 -10.487225 -3.432556 -0.823713 -7.100416 1.390450 0.298822 -45.938274 1.992188 -2.001953 0.000341 -65.158310 14.876150 27.372196 -61.197670 1.405590 20.242420 23.115574 -50.556278 18.937067 -2.001953 1.992188 0.000000 44.811085 -18.753551 60.927658 66.833015 -1.520291 20.409361 -19.413662 52.119263 18.496922 -29.703455 2.860624 -2.859845 28.975035 -1.285456 -2.547442 -14.803356 2.268982 -5.728992 -34.412403 -8.202524 2.101685 32.535069 1.088426 2.718834 -17.964460 2.752793 3.328512 
0.410442 44.062775 4.456357 17.386623 9.015768 -15.834515 0.000000 0.000000 0.000000 -15.842449 -2.292904 -11.962949 -4.257781 -0.976803 -7.970081 2.902333 -0.387698 -51.661869 1.992188 -2.001953 0.000341 -65.141411 16.653240 25.613445 -60.776165 1.405062 20.232546 23.115574 -50.556278 18.937067 -2.001953 1.992188 0.000000 44.577003 -17.713621 63.218884 66.823265 -1.520459 20.409748 -19.574883 52.052193 18.529636 -29.846464 2.821534 -3.367408 29.571291 -1.256144 -2.590647 -14.690314 2.180161 -6.116715 -34.660515 -8.299328 2.097133 32.691296 1.088367 2.726766 -17.971825 3.529850 3.240137 
0.410441 44.068207 4.456355 17.301373 9.347073 -16.404951 0.000000 0.000000 0.000000 -15.815145 -2.270148 -13.438662 -5.076838 -1.138660 -8.839819 4.468468 -0.915824 -57.394318 1.992188 -2.001953 0.000341 -65.197655 18.430475 23.831964 -60.361229 1.392258 20.217720 23.115574 -50.556278 18.937067 -2.001953 1.992188 0.000000 44.390297 -16.667925 65.503082 66.813354 -1.510862 20.400377 -19.752583 51.977684 18.537075 -29.969948 2.772705 -3.863711 30.157333 -1.226591 -2.642792 -14.572483 2.059482 -6.510035 -34.904728 -8.406661 2.075576 32.847797 1.078492 2.732021 -17.968792 4.294153 3.166522 
